<mxfile host="app.diagrams.net" modified="2021-05-21T18:48:58.952Z" agent="5.0 (Macintosh; Intel Mac OS X 10_15_7) AppleWebKit/605.1.15 (KHTML, like Gecko) Version/14.1 Safari/605.1.15" etag="9IE2s-6uhTsNAt8CUaPt" version="14.7.0" type="github">
  <diagram id="QKVVdcQff9Tb8as7hJVz" name="Page-1">
    <mxGraphModel dx="1042" dy="708" grid="1" gridSize="10" guides="1" tooltips="1" connect="1" arrows="1" fold="1" page="1" pageScale="1" pageWidth="850" pageHeight="1100" background="#EEEEEE" math="0" shadow="0">
      <root>
        <mxCell id="0" />
        <mxCell id="1" parent="0" />
        <mxCell id="fOuBf7LVjMDpWlK15w3h-1" value="Pond" style="html=1;rounded=1;fillColor=#F5AB50;strokeColor=#909090;fontColor=#1A1A1A;" vertex="1" parent="1">
          <mxGeometry x="110" y="30" width="110" height="50" as="geometry" />
        </mxCell>
        <mxCell id="fOuBf7LVjMDpWlK15w3h-3" value="Duck" style="html=1;rounded=1;fillColor=#F5AB50;strokeColor=#909090;fontColor=#1A1A1A;" vertex="1" parent="1">
          <mxGeometry x="450" y="30" width="110" height="50" as="geometry" />
        </mxCell>
        <mxCell id="fOuBf7LVjMDpWlK15w3h-5" value="1" style="endArrow=open;html=1;endSize=12;startArrow=diamondThin;startSize=14;startFill=0;edgeStyle=orthogonalEdgeStyle;align=left;verticalAlign=bottom;exitX=1;exitY=0.5;exitDx=0;exitDy=0;strokeColor=#182E3E;fontColor=#1A1A1A;labelBackgroundColor=#EEEEEE;" edge="1" parent="1" source="fOuBf7LVjMDpWlK15w3h-1">
          <mxGeometry x="-1" y="3" relative="1" as="geometry">
            <mxPoint x="290" y="54.5" as="sourcePoint" />
            <mxPoint x="450" y="54.5" as="targetPoint" />
          </mxGeometry>
        </mxCell>
        <mxCell id="fOuBf7LVjMDpWlK15w3h-8" value="House" style="html=1;rounded=1;sketch=0;fontColor=#1A1A1A;strokeColor=#909090;fillColor=#F5AB50;" vertex="1" parent="1">
          <mxGeometry x="100" y="220" width="110" height="50" as="geometry" />
        </mxCell>
        <mxCell id="fOuBf7LVjMDpWlK15w3h-9" value="Room" style="html=1;rounded=1;sketch=0;fontColor=#1A1A1A;strokeColor=#909090;fillColor=#F5AB50;" vertex="1" parent="1">
          <mxGeometry x="490" y="140" width="110" height="50" as="geometry" />
        </mxCell>
        <mxCell id="fOuBf7LVjMDpWlK15w3h-10" value="Bedroom" style="html=1;rounded=1;sketch=0;fontColor=#1A1A1A;strokeColor=#909090;fillColor=#F5AB50;" vertex="1" parent="1">
          <mxGeometry x="650" y="270" width="110" height="50" as="geometry" />
        </mxCell>
        <mxCell id="fOuBf7LVjMDpWlK15w3h-11" value="Kitchen" style="html=1;rounded=1;sketch=0;fontColor=#1A1A1A;strokeColor=#909090;fillColor=#F5AB50;" vertex="1" parent="1">
          <mxGeometry x="360" y="270" width="110" height="50" as="geometry" />
        </mxCell>
        <mxCell id="fOuBf7LVjMDpWlK15w3h-12" value="Bathroom" style="html=1;rounded=1;sketch=0;fontColor=#1A1A1A;strokeColor=#909090;fillColor=#F5AB50;" vertex="1" parent="1">
          <mxGeometry x="500" y="270" width="110" height="50" as="geometry" />
        </mxCell>
        <mxCell id="fOuBf7LVjMDpWlK15w3h-13" value="" style="endArrow=block;endSize=16;endFill=0;html=1;fontColor=#1A1A1A;strokeColor=#182E3E;exitX=0.5;exitY=0;exitDx=0;exitDy=0;" edge="1" parent="1" source="fOuBf7LVjMDpWlK15w3h-11" target="fOuBf7LVjMDpWlK15w3h-9">
          <mxGeometry x="0.1167" y="14" width="160" relative="1" as="geometry">
            <mxPoint x="340" y="230" as="sourcePoint" />
            <mxPoint x="510" y="200" as="targetPoint" />
            <mxPoint as="offset" />
          </mxGeometry>
        </mxCell>
        <mxCell id="fOuBf7LVjMDpWlK15w3h-14" value="" style="endArrow=block;endSize=16;endFill=0;html=1;fontColor=#1A1A1A;strokeColor=#182E3E;exitX=0.5;exitY=0;exitDx=0;exitDy=0;entryX=0.5;entryY=1;entryDx=0;entryDy=0;" edge="1" parent="1" source="fOuBf7LVjMDpWlK15w3h-12" target="fOuBf7LVjMDpWlK15w3h-9">
          <mxGeometry width="160" relative="1" as="geometry">
            <mxPoint x="340" y="230" as="sourcePoint" />
            <mxPoint x="500" y="230" as="targetPoint" />
          </mxGeometry>
        </mxCell>
        <mxCell id="fOuBf7LVjMDpWlK15w3h-16" value="" style="endArrow=block;endSize=16;endFill=0;html=1;fontColor=#1A1A1A;strokeColor=#182E3E;exitX=0.445;exitY=-0.06;exitDx=0;exitDy=0;exitPerimeter=0;entryX=0.827;entryY=1.08;entryDx=0;entryDy=0;entryPerimeter=0;" edge="1" parent="1" source="fOuBf7LVjMDpWlK15w3h-10" target="fOuBf7LVjMDpWlK15w3h-9">
          <mxGeometry width="160" relative="1" as="geometry">
            <mxPoint x="340" y="230" as="sourcePoint" />
            <mxPoint x="500" y="230" as="targetPoint" />
          </mxGeometry>
        </mxCell>
        <mxCell id="fOuBf7LVjMDpWlK15w3h-17" value="" style="endArrow=diamondThin;endFill=1;endSize=24;html=1;fontColor=#1A1A1A;strokeColor=#182E3E;exitX=0.582;exitY=0.98;exitDx=0;exitDy=0;exitPerimeter=0;entryX=0.845;entryY=1.06;entryDx=0;entryDy=0;entryPerimeter=0;" edge="1" parent="1" source="fOuBf7LVjMDpWlK15w3h-11" target="fOuBf7LVjMDpWlK15w3h-8">
          <mxGeometry width="160" relative="1" as="geometry">
            <mxPoint x="340" y="230" as="sourcePoint" />
            <mxPoint x="190" y="280" as="targetPoint" />
            <Array as="points">
              <mxPoint x="424" y="410" />
              <mxPoint x="320" y="410" />
              <mxPoint x="190" y="410" />
            </Array>
          </mxGeometry>
        </mxCell>
        <mxCell id="fOuBf7LVjMDpWlK15w3h-19" value="1" style="text;html=1;align=center;verticalAlign=middle;resizable=0;points=[];autosize=1;strokeColor=none;fontColor=#1A1A1A;" vertex="1" parent="1">
          <mxGeometry x="425" y="320" width="20" height="20" as="geometry" />
        </mxCell>
        <mxCell id="fOuBf7LVjMDpWlK15w3h-20" value="" style="endArrow=diamondThin;endFill=1;endSize=24;html=1;fontColor=#1A1A1A;strokeColor=#182E3E;exitX=0.5;exitY=1;exitDx=0;exitDy=0;entryX=0.5;entryY=1;entryDx=0;entryDy=0;" edge="1" parent="1" source="fOuBf7LVjMDpWlK15w3h-12" target="fOuBf7LVjMDpWlK15w3h-8">
          <mxGeometry width="160" relative="1" as="geometry">
            <mxPoint x="434.02" y="329" as="sourcePoint" />
            <mxPoint x="202.95000000000005" y="283" as="targetPoint" />
            <Array as="points">
              <mxPoint x="560" y="440" />
              <mxPoint x="330" y="440" />
              <mxPoint x="155" y="440" />
            </Array>
          </mxGeometry>
        </mxCell>
        <mxCell id="fOuBf7LVjMDpWlK15w3h-22" value="" style="shape=waypoint;sketch=0;size=6;pointerEvents=1;points=[];fillColor=none;resizable=0;rotatable=0;perimeter=centerPerimeter;snapToPoint=1;rounded=1;fontColor=#1A1A1A;strokeColor=#909090;" vertex="1" parent="1">
          <mxGeometry x="560" y="310" width="40" height="40" as="geometry" />
        </mxCell>
        <mxCell id="fOuBf7LVjMDpWlK15w3h-23" value="" style="endArrow=diamondThin;endFill=1;endSize=24;html=1;fontColor=#1A1A1A;strokeColor=#182E3E;entryX=0.173;entryY=1.04;entryDx=0;entryDy=0;entryPerimeter=0;exitX=0.636;exitY=1.04;exitDx=0;exitDy=0;exitPerimeter=0;" edge="1" parent="1" source="fOuBf7LVjMDpWlK15w3h-10" target="fOuBf7LVjMDpWlK15w3h-8">
          <mxGeometry width="160" relative="1" as="geometry">
            <mxPoint x="119" y="500" as="sourcePoint" />
            <mxPoint x="220" y="500" as="targetPoint" />
            <Array as="points">
              <mxPoint x="720" y="480" />
              <mxPoint x="450" y="480" />
              <mxPoint x="119" y="480" />
            </Array>
          </mxGeometry>
        </mxCell>
        <mxCell id="fOuBf7LVjMDpWlK15w3h-24" value="" style="shape=waypoint;sketch=0;size=6;pointerEvents=1;points=[];fillColor=none;resizable=0;rotatable=0;perimeter=centerPerimeter;snapToPoint=1;rounded=1;fontColor=#1A1A1A;strokeColor=#909090;" vertex="1" parent="1">
          <mxGeometry x="710" y="310" width="40" height="40" as="geometry" />
        </mxCell>
        <mxCell id="fOuBf7LVjMDpWlK15w3h-25" value="Garage" style="html=1;rounded=1;sketch=0;fontColor=#1A1A1A;strokeColor=#909090;fillColor=#F5AB50;" vertex="1" parent="1">
          <mxGeometry x="190" y="520" width="110" height="50" as="geometry" />
        </mxCell>
        <mxCell id="fOuBf7LVjMDpWlK15w3h-26" value="Car" style="html=1;rounded=1;sketch=0;fontColor=#1A1A1A;strokeColor=#909090;fillColor=#F5AB50;" vertex="1" parent="1">
          <mxGeometry x="500" y="520" width="110" height="50" as="geometry" />
        </mxCell>
        <mxCell id="fOuBf7LVjMDpWlK15w3h-27" value="" style="endArrow=diamondThin;endFill=0;endSize=24;html=1;fontColor=#1A1A1A;strokeColor=#182E3E;entryX=1;entryY=0.5;entryDx=0;entryDy=0;" edge="1" parent="1" target="fOuBf7LVjMDpWlK15w3h-25">
          <mxGeometry width="160" relative="1" as="geometry">
            <mxPoint x="499" y="545" as="sourcePoint" />
            <mxPoint x="430" y="240" as="targetPoint" />
          </mxGeometry>
        </mxCell>
        <mxCell id="fOuBf7LVjMDpWlK15w3h-28" value="" style="endArrow=diamondThin;endFill=1;endSize=24;html=1;fontColor=#1A1A1A;strokeColor=#182E3E;exitX=0;exitY=0.5;exitDx=0;exitDy=0;entryX=0;entryY=0.5;entryDx=0;entryDy=0;" edge="1" parent="1" source="fOuBf7LVjMDpWlK15w3h-25" target="fOuBf7LVjMDpWlK15w3h-8">
          <mxGeometry width="160" relative="1" as="geometry">
            <mxPoint x="270" y="240" as="sourcePoint" />
            <mxPoint x="430" y="240" as="targetPoint" />
            <Array as="points">
              <mxPoint x="50" y="545" />
              <mxPoint x="50" y="370" />
              <mxPoint x="50" y="245" />
            </Array>
          </mxGeometry>
        </mxCell>
        <mxCell id="fOuBf7LVjMDpWlK15w3h-29" value="1" style="text;html=1;align=center;verticalAlign=middle;resizable=0;points=[];autosize=1;strokeColor=none;fontColor=#1A1A1A;" vertex="1" parent="1">
          <mxGeometry x="160" y="520" width="20" height="20" as="geometry" />
        </mxCell>
      </root>
    </mxGraphModel>
  </diagram>
</mxfile>
